Coordinates
version=1
nRows=17
nColumns=36
inDegrees=yes

Units are S.I. units (second, meters, Newtons, ...)
If the header above contains a line with 'inDegrees', this indicates whether rotational values are in degrees (yes) or radians (no).

endheader
time	pelvis_tilt	pelvis_list	pelvis_rotation	pelvis_tx	pelvis_ty	pelvis_tz	hip_flexion_r	hip_adduction_r	hip_rotation_r	knee_angle_r	knee_angle_r_beta	ankle_angle_r	subtalar_angle_r	mtp_angle_r	hip_flexion_l	hip_adduction_l	hip_rotation_l	knee_angle_l	knee_angle_l_beta	ankle_angle_l	subtalar_angle_l	mtp_angle_l	lumbar_extension	lumbar_bending	lumbar_rotation	arm_flex_r	arm_add_r	arm_rot_r	elbow_flex_r	pro_sup_r	arm_flex_l	arm_add_l	arm_rot_l	elbow_flex_l	pro_sup_l
      1.72881360	      4.90203684	      0.25721021	   -178.78393765	      0.76319979	      0.87073291	     -0.03517151	     48.76380144	     -2.89718886	     -3.31920937	     77.35721855	      1.35013816	      9.57036350	    -34.09428844	     -7.49999987	     47.94358859	     -2.85127989	     -7.58477063	     71.44285224	      1.24691300	     11.81481653	    -20.80874664	     -7.49999987	    -36.44226734	     -2.54131081	      3.37921029	     37.90823231	     -7.52495324	     14.18887391	     73.03568888	     81.31934755	     45.19825073	     -4.79787611	   -340.08714879	     77.37548424	     71.08166379
      1.74576270	      6.33580718	      0.40186037	   -178.51155187	      0.75627074	      0.86732698	     -0.03777937	     49.67088049	     -3.06685277	     -3.69734583	     77.95510766	      1.36057330	     10.18718983	    -34.20135844	     -7.49999987	     49.32513335	     -3.43688522	     -7.67801471	     72.12197757	      1.25876597	     12.53376794	    -18.93712624	     -7.49999987	    -35.87306419	     -2.66731063	      3.32809640	     42.13912745	     -8.41168417	     14.83929722	     75.33502801	     81.82130987	     49.66727161	     -4.98694767	   -337.40384732	     85.09916246	     72.32463940
      1.76271190	      7.77210692	      0.47558232	   -178.55056498	      0.74932013	      0.86386229	     -0.02654275	     50.61152827	     -3.75735471	     -3.71378219	     77.99250137	      1.36122594	     10.07637923	    -34.26664923	     -7.49999987	     50.74760000	     -3.35780707	     -7.75415072	     73.14586705	      1.27663621	     12.81820266	    -18.72137769	     -7.49999987	    -34.96697144	     -1.90821719	      2.99715066	     50.42623953	     -8.45751090	     18.28463871	     75.11808043	     82.53945537	     50.56398838	     -6.11837184	   -338.06443975	     93.08362119	     75.62964594
      1.77966100	      8.86279185	      0.47680385	   -178.24577894	      0.74323190	      0.87312701	     -0.02698517	     50.57650277	     -4.16439208	     -3.96734062	     76.71199419	      1.33887687	      9.43309258	    -34.20234663	     -7.49999987	     51.19127153	     -3.09788890	     -7.90176000	     72.72421608	      1.26927702	     12.31565260	    -18.17817710	     -7.49999987	    -34.45267790	     -1.41607341	      3.34275760	     55.80016649	    -10.93643652	     18.35082458	     77.18525290	     84.34222577	     60.09451939	     -3.04371735	   -334.00200400	     92.81098053	     80.84382478
      1.79661020	      9.67386520	      0.49215824	   -178.02651235	      0.73038558	      0.88010789	     -0.02410026	     49.57454013	     -4.35928198	     -4.05168157	     74.58306356	      1.30172003	      8.11452518	    -33.98867589	     -7.49999987	     50.57329836	     -2.70063246	     -7.88420026	     71.33152937	      1.24497005	     11.85699217	    -18.20097794	     -7.49999987	    -34.15767609	     -0.61021554	      3.76659476	     67.37803547	    -11.61836092	     22.40745823	     81.10738859	     84.74741326	     68.89180264	     -1.36669564	   -331.86427594	     93.08728737	     81.39782430
      1.81355930	     10.45660816	      0.62435591	   -177.96498411	      0.72001646	      0.88552924	     -0.02763440	     48.47832107	     -4.10976556	     -4.25566494	     72.34009276	      1.26257280	      7.21846619	    -33.45745903	     -7.49999987	     49.96178320	     -2.81669398	     -7.90716879	     70.29999674	      1.22696641	     11.56506462	    -17.53205370	     -7.49999987	    -33.62958968	     -0.15046150	      4.04825142	     74.74161671	    -11.40692119	     24.62398800	     83.83466010	     85.04717192	     75.79573864	      0.17833769	   -330.38763797	     91.98081877	     81.74059362
      1.83050850	     11.00840219	      0.77181286	   -178.02630936	      0.70673018	      0.90076271	     -0.02512652	     46.37838852	     -3.88300097	     -4.65111464	     68.88857401	      1.20233243	      6.37307150	    -32.50127882	     -7.49999987	     48.21162645	     -2.99451867	     -8.20395429	     67.94621033	      1.18588508	     10.95610372	    -17.06200753	     -7.49999987	    -32.28650879	      0.13959345	      4.48007984	     76.53797639	    -12.87582974	     26.35161101	     85.93345717	     86.61230530	     78.10023586	      0.55413879	   -329.52823456	     92.79055253	     82.24998421
      1.84745760	     11.32565881	      0.86868351	   -178.23329051	      0.69213031	      0.91679494	     -0.02312235	     43.65654357	     -3.99013404	     -5.31325717	     65.19165830	      1.13780908	      5.11218000	    -31.89825440	     -7.49999987	     45.63654374	     -3.31745335	     -9.04031312	     64.43290561	      1.12456635	      9.92465013	    -16.12764047	     -7.49999987	    -31.21233166	      0.49035067	      4.49608952	     79.56374858	    -12.89503523	     27.29434225	     89.53103583	     88.12453173	     80.85300843	      1.76712847	   -329.95566803	     91.69929535	     82.62513726
      1.86440680	     11.25714740	      0.90483902	   -178.41962461	      0.67455821	      0.93918458	     -0.02204834	     40.07495405	     -4.52593166	     -6.55796309	     60.96085013	      1.06396755	      3.16773256	    -32.92645326	     -7.49999987	     42.08662660	     -3.68921573	    -10.16195427	     60.25108496	      1.05157981	      7.96560851	    -16.23383452	     -7.49999987	    -29.65422185	      0.77730909	      4.32525569	     80.17971845	    -13.47745779	     29.93877728	     92.61546713	     86.43002127	     79.55464044	      1.59323984	   -330.06935657	     93.23287460	     80.56089731
      1.88135590	     10.78023154	      0.76038703	   -178.34811257	      0.65340177	      0.96724162	     -0.02276187	     35.40195010	     -4.70922443	     -7.61770971	     55.26761577	      0.96460186	      0.39709678	    -33.04068814	     -7.49999987	     37.22216625	     -3.60933452	    -11.54903507	     54.27152408	      0.94721679	      4.60224266	    -14.84657104	     -7.49999987	    -28.01278924	      0.79978173	      4.05965543	     78.01888702	    -13.48949749	     31.12055092	     94.66036728	     86.65212724	     77.37332649	      1.40003087	   -330.51062991	     93.08555459	     80.36325724
      1.89830510	     10.03440613	      0.53017286	   -178.09557081	      0.62558933	      0.99483131	     -0.02358688	     29.69273062	     -4.54319483	     -8.78485968	     48.38853757	      0.84453930	     -3.04159702	    -31.92343705	     -7.49999987	     31.63987928	     -3.51706526	    -12.91139755	     47.80559007	      0.83436495	      0.28348439	    -13.55450405	     -7.49999987	    -25.72897415	      0.54101046	      4.13073169	     74.25672445	    -13.72144452	     32.59195041	     95.71480923	     90.59237661	     73.56501295	      0.81153767	   -330.07618253	     93.92235229	     79.63918088
      1.91525420	      9.43186553	      0.49580274	   -177.46306711	      0.60270260	      1.02547653	     -0.02285479	     23.81137654	     -4.10338372	    -10.15163561	     40.67167042	      0.70985456	     -6.52499174	    -28.36950627	     -7.49999987	     26.00836081	     -4.22601665	    -14.61718175	     41.68285715	      0.72750310	     -7.68116039	    -20.54395094	     -7.49999987	    -22.79175579	      0.52641123	      2.76516692	     64.17421157	    -16.97167924	     31.82910373	    101.35921307	     90.82440847	     69.54847272	     -0.24165074	   -321.70992052	     93.69355627	     79.32436690
      1.93220340	      8.79427487	      0.14170562	   -177.79719919	      0.57533124	      1.05945758	     -0.03007528	     18.07468847	     -3.74899594	    -10.90439264	     32.78955145	      0.57228563	    -10.14259249	    -20.28447770	     -7.49999987	     21.36109483	     -2.84512932	    -15.03922632	     33.26551927	      0.58059284	    -10.18987740	     -6.98702984	     -7.49999987	    -19.43617765	     -0.22494411	      3.66444973	     55.18695085	    -18.24303757	     35.77378301	    104.77257137	     89.81398824	     63.73993926	     -4.69439792	   -318.81979679	     93.41598168	     78.45057653
      1.94915250	      8.20969417	     -0.20183481	   -177.64860260	      0.54815732	      1.09330531	     -0.03102313	     12.48073143	     -4.02260307	    -12.77887959	     24.31667581	      0.42440606	    -17.70931704	    -11.32495873	     -7.49999987	     15.78088378	     -2.79988600	    -17.41077278	     24.68965500	      0.43091577	    -19.60795278	     -4.04955519	     -7.49999987	    -15.86312416	     -0.93459986	      5.38619704	     45.88307180	    -20.26062802	     44.12152170	    106.60194276	     89.25162577	     55.38796172	     -9.08817713	   -317.47647465	     89.81159758	     72.79433232
      1.96610170	      7.99082693	     -0.13778733	   -177.86984386	      0.52807618	      1.11141201	     -0.02885175	      9.22321990	     -3.69367208	    -14.00810646	     19.44693618	      0.33941307	    -24.70424459	     -6.03417282	     -7.49999987	     11.76545669	     -3.49781053	    -18.97932335	     18.73048271	      0.32690859	    -26.50422567	     -2.34955744	     -7.49999987	    -12.20038908	     -1.02489669	      5.51970736	     36.76692635	    -23.26356459	     48.57074542	    104.83963374	     88.72301134	     45.58294906	    -16.94174697	   -318.10142481	     89.24115999	     69.31177927
      1.98305080	      7.66867326	      0.31054716	   -178.45254947	      0.51096699	      1.14206252	     -0.03108523	      7.15314115	     -3.19669961	    -14.72283371	     15.65307827	      0.27319775	    -32.78082444	     -3.36526209	     -7.49999987	      8.76478907	     -4.43666706	    -19.93418236	     13.73537905	      0.23972759	    -34.58903162	      0.52176005	     -7.49999987	     -9.64605469	     -0.36323660	      5.64499644	     29.67946633	    -25.55450891	     47.79947192	    102.42467629	     90.42483199	     36.93472454	    -23.12295381	   -318.31145457	     87.08875826	     69.39466677
      2.00000000	      6.95220208	      0.65797899	   -178.32075065	      0.49014732	      1.18092165	     -0.03329035	      4.87256063	     -2.55374733	    -14.09694207	     11.94443129	      0.20846965	    -38.90225429	     -2.45523781	     -7.49999987	      6.19369837	     -5.53375184	    -21.65003562	     10.57957378	      0.18464840	    -41.40513562	      0.11043443	     -7.49999987	     -8.39112255	      0.36027698	      3.66433559	     20.17596316	    -27.71913180	     40.85395484	     99.90130562	     89.89054672	     28.05754143	    -27.84038581	   -321.71070633	     88.31068958	     68.79973492
